<mxfile host="app.diagrams.net" modified="2023-06-22T10:04:37.586Z" agent="Mozilla/5.0 (Windows NT 10.0; Win64; x64) AppleWebKit/537.36 (KHTML, like Gecko) Chrome/114.0.0.0 Safari/537.36 Edg/114.0.1823.51" etag="5AbqTYGFn_V8Y2Llf7Am" version="21.3.7" type="github">
  <diagram name="Trang-1" id="vd_IC0QnZR6WQDuj_e-0">
    <mxGraphModel dx="996" dy="541" grid="1" gridSize="10" guides="1" tooltips="1" connect="1" arrows="1" fold="1" page="1" pageScale="1" pageWidth="827" pageHeight="1169" math="0" shadow="0">
      <root>
        <mxCell id="0" />
        <mxCell id="1" parent="0" />
        <mxCell id="nbKRNy8KarKHfk9hv2lN-37" value="" style="edgeStyle=orthogonalEdgeStyle;rounded=0;orthogonalLoop=1;jettySize=auto;html=1;" parent="1" source="nbKRNy8KarKHfk9hv2lN-34" target="nbKRNy8KarKHfk9hv2lN-36" edge="1">
          <mxGeometry relative="1" as="geometry" />
        </mxCell>
        <mxCell id="nbKRNy8KarKHfk9hv2lN-56" value="" style="edgeStyle=orthogonalEdgeStyle;rounded=0;orthogonalLoop=1;jettySize=auto;html=1;" parent="1" source="nbKRNy8KarKHfk9hv2lN-34" target="nbKRNy8KarKHfk9hv2lN-55" edge="1">
          <mxGeometry relative="1" as="geometry">
            <Array as="points">
              <mxPoint x="290" y="80" />
              <mxPoint x="290" y="80" />
            </Array>
          </mxGeometry>
        </mxCell>
        <mxCell id="nbKRNy8KarKHfk9hv2lN-34" value="APP" style="ellipse;whiteSpace=wrap;html=1;" parent="1" vertex="1">
          <mxGeometry x="330" y="50" width="100" height="50" as="geometry" />
        </mxCell>
        <mxCell id="nbKRNy8KarKHfk9hv2lN-44" value="" style="edgeStyle=orthogonalEdgeStyle;rounded=0;orthogonalLoop=1;jettySize=auto;html=1;" parent="1" source="nbKRNy8KarKHfk9hv2lN-36" target="nbKRNy8KarKHfk9hv2lN-43" edge="1">
          <mxGeometry relative="1" as="geometry" />
        </mxCell>
        <mxCell id="nbKRNy8KarKHfk9hv2lN-36" value="Đăng nhập" style="whiteSpace=wrap;html=1;" parent="1" vertex="1">
          <mxGeometry x="320" y="130" width="120" height="45" as="geometry" />
        </mxCell>
        <mxCell id="nbKRNy8KarKHfk9hv2lN-45" style="edgeStyle=orthogonalEdgeStyle;rounded=0;orthogonalLoop=1;jettySize=auto;html=1;entryX=1;entryY=0.5;entryDx=0;entryDy=0;" parent="1" source="nbKRNy8KarKHfk9hv2lN-43" target="nbKRNy8KarKHfk9hv2lN-36" edge="1">
          <mxGeometry relative="1" as="geometry">
            <mxPoint x="510" y="150" as="targetPoint" />
            <Array as="points">
              <mxPoint x="480" y="249" />
              <mxPoint x="480" y="152" />
            </Array>
          </mxGeometry>
        </mxCell>
        <mxCell id="nbKRNy8KarKHfk9hv2lN-70" value="" style="edgeStyle=orthogonalEdgeStyle;rounded=0;orthogonalLoop=1;jettySize=auto;html=1;" parent="1" source="nbKRNy8KarKHfk9hv2lN-43" target="nbKRNy8KarKHfk9hv2lN-69" edge="1">
          <mxGeometry relative="1" as="geometry">
            <Array as="points">
              <mxPoint x="380" y="330" />
              <mxPoint x="120" y="330" />
            </Array>
          </mxGeometry>
        </mxCell>
        <mxCell id="nbKRNy8KarKHfk9hv2lN-43" value="&lt;div style=&quot;&quot;&gt;&lt;span style=&quot;background-color: initial;&quot;&gt;&lt;font style=&quot;font-size: 14px;&quot;&gt;Đăng nhập thành công&lt;/font&gt;&lt;/span&gt;&lt;/div&gt;" style="rhombus;whiteSpace=wrap;html=1;align=center;" parent="1" vertex="1">
          <mxGeometry x="330" y="200" width="100" height="97.5" as="geometry" />
        </mxCell>
        <mxCell id="nbKRNy8KarKHfk9hv2lN-47" value="FALSE" style="text;html=1;strokeColor=none;fillColor=none;align=center;verticalAlign=middle;whiteSpace=wrap;rounded=0;" parent="1" vertex="1">
          <mxGeometry x="420" y="220" width="60" height="30" as="geometry" />
        </mxCell>
        <mxCell id="nbKRNy8KarKHfk9hv2lN-86" value="" style="edgeStyle=orthogonalEdgeStyle;rounded=0;orthogonalLoop=1;jettySize=auto;html=1;" parent="1" source="nbKRNy8KarKHfk9hv2lN-50" target="nbKRNy8KarKHfk9hv2lN-85" edge="1">
          <mxGeometry relative="1" as="geometry" />
        </mxCell>
        <mxCell id="nbKRNy8KarKHfk9hv2lN-100" style="edgeStyle=orthogonalEdgeStyle;rounded=0;orthogonalLoop=1;jettySize=auto;html=1;exitX=1;exitY=0.5;exitDx=0;exitDy=0;entryX=0;entryY=0.5;entryDx=0;entryDy=0;" parent="1" source="nbKRNy8KarKHfk9hv2lN-50" target="nbKRNy8KarKHfk9hv2lN-65" edge="1">
          <mxGeometry relative="1" as="geometry" />
        </mxCell>
        <mxCell id="nbKRNy8KarKHfk9hv2lN-101" style="edgeStyle=orthogonalEdgeStyle;rounded=0;orthogonalLoop=1;jettySize=auto;html=1;exitX=1;exitY=0.5;exitDx=0;exitDy=0;entryX=0;entryY=0.5;entryDx=0;entryDy=0;" parent="1" source="nbKRNy8KarKHfk9hv2lN-50" target="nbKRNy8KarKHfk9hv2lN-63" edge="1">
          <mxGeometry relative="1" as="geometry" />
        </mxCell>
        <mxCell id="nbKRNy8KarKHfk9hv2lN-50" value="Trang chủ" style="whiteSpace=wrap;html=1;" parent="1" vertex="1">
          <mxGeometry x="320" y="385" width="120" height="60" as="geometry" />
        </mxCell>
        <mxCell id="nbKRNy8KarKHfk9hv2lN-52" value="TRUE" style="text;html=1;strokeColor=none;fillColor=none;align=center;verticalAlign=middle;whiteSpace=wrap;rounded=0;" parent="1" vertex="1">
          <mxGeometry x="324" y="297.5" width="60" height="30" as="geometry" />
        </mxCell>
        <mxCell id="nbKRNy8KarKHfk9hv2lN-58" value="" style="edgeStyle=orthogonalEdgeStyle;rounded=0;orthogonalLoop=1;jettySize=auto;html=1;" parent="1" source="nbKRNy8KarKHfk9hv2lN-55" target="nbKRNy8KarKHfk9hv2lN-57" edge="1">
          <mxGeometry relative="1" as="geometry" />
        </mxCell>
        <mxCell id="nbKRNy8KarKHfk9hv2lN-55" value="Đăng ký" style="whiteSpace=wrap;html=1;" parent="1" vertex="1">
          <mxGeometry x="60" y="42.5" width="120" height="60" as="geometry" />
        </mxCell>
        <mxCell id="nbKRNy8KarKHfk9hv2lN-59" style="edgeStyle=orthogonalEdgeStyle;rounded=0;orthogonalLoop=1;jettySize=auto;html=1;" parent="1" source="nbKRNy8KarKHfk9hv2lN-57" edge="1">
          <mxGeometry relative="1" as="geometry">
            <mxPoint x="220" y="77.5" as="targetPoint" />
          </mxGeometry>
        </mxCell>
        <mxCell id="nbKRNy8KarKHfk9hv2lN-61" style="edgeStyle=orthogonalEdgeStyle;rounded=0;orthogonalLoop=1;jettySize=auto;html=1;exitX=0.5;exitY=1;exitDx=0;exitDy=0;entryX=0;entryY=0.5;entryDx=0;entryDy=0;" parent="1" source="nbKRNy8KarKHfk9hv2lN-57" target="nbKRNy8KarKHfk9hv2lN-36" edge="1">
          <mxGeometry relative="1" as="geometry" />
        </mxCell>
        <mxCell id="nbKRNy8KarKHfk9hv2lN-57" value="Đăng ký thành công" style="rhombus;whiteSpace=wrap;html=1;" parent="1" vertex="1">
          <mxGeometry x="70" y="167.5" width="100" height="95" as="geometry" />
        </mxCell>
        <mxCell id="nbKRNy8KarKHfk9hv2lN-60" value="FALSE" style="text;html=1;strokeColor=none;fillColor=none;align=center;verticalAlign=middle;whiteSpace=wrap;rounded=0;" parent="1" vertex="1">
          <mxGeometry x="160" y="190" width="60" height="30" as="geometry" />
        </mxCell>
        <mxCell id="nbKRNy8KarKHfk9hv2lN-62" value="TRUE" style="text;html=1;strokeColor=none;fillColor=none;align=center;verticalAlign=middle;whiteSpace=wrap;rounded=0;" parent="1" vertex="1">
          <mxGeometry x="140" y="250" width="60" height="30" as="geometry" />
        </mxCell>
        <mxCell id="nbKRNy8KarKHfk9hv2lN-102" style="edgeStyle=orthogonalEdgeStyle;rounded=0;orthogonalLoop=1;jettySize=auto;html=1;exitX=1;exitY=0.5;exitDx=0;exitDy=0;entryX=0;entryY=0.5;entryDx=0;entryDy=0;" parent="1" source="nbKRNy8KarKHfk9hv2lN-63" target="nbKRNy8KarKHfk9hv2lN-76" edge="1">
          <mxGeometry relative="1" as="geometry" />
        </mxCell>
        <mxCell id="nbKRNy8KarKHfk9hv2lN-103" style="edgeStyle=orthogonalEdgeStyle;rounded=0;orthogonalLoop=1;jettySize=auto;html=1;exitX=1;exitY=0.5;exitDx=0;exitDy=0;entryX=0;entryY=0.5;entryDx=0;entryDy=0;" parent="1" source="nbKRNy8KarKHfk9hv2lN-63" target="nbKRNy8KarKHfk9hv2lN-78" edge="1">
          <mxGeometry relative="1" as="geometry" />
        </mxCell>
        <mxCell id="nbKRNy8KarKHfk9hv2lN-63" value="Chế độ" style="whiteSpace=wrap;html=1;" parent="1" vertex="1">
          <mxGeometry x="490" y="445" width="120" height="60" as="geometry" />
        </mxCell>
        <mxCell id="nbKRNy8KarKHfk9hv2lN-65" value="hẹn giờ" style="whiteSpace=wrap;html=1;" parent="1" vertex="1">
          <mxGeometry x="490" y="340" width="120" height="60" as="geometry" />
        </mxCell>
        <mxCell id="nbKRNy8KarKHfk9hv2lN-71" value="" style="edgeStyle=orthogonalEdgeStyle;rounded=0;orthogonalLoop=1;jettySize=auto;html=1;" parent="1" source="nbKRNy8KarKHfk9hv2lN-69" target="nbKRNy8KarKHfk9hv2lN-50" edge="1">
          <mxGeometry relative="1" as="geometry" />
        </mxCell>
        <mxCell id="nbKRNy8KarKHfk9hv2lN-104" style="edgeStyle=orthogonalEdgeStyle;rounded=0;orthogonalLoop=1;jettySize=auto;html=1;exitX=0.5;exitY=1;exitDx=0;exitDy=0;entryX=0;entryY=0.5;entryDx=0;entryDy=0;" parent="1" source="nbKRNy8KarKHfk9hv2lN-69" target="nbKRNy8KarKHfk9hv2lN-98" edge="1">
          <mxGeometry relative="1" as="geometry" />
        </mxCell>
        <mxCell id="nbKRNy8KarKHfk9hv2lN-69" value="Kết nối với firebase" style="rhombus;whiteSpace=wrap;html=1;" parent="1" vertex="1">
          <mxGeometry x="70" y="370" width="100" height="90" as="geometry" />
        </mxCell>
        <mxCell id="nbKRNy8KarKHfk9hv2lN-72" value="TRUE" style="text;html=1;strokeColor=none;fillColor=none;align=center;verticalAlign=middle;whiteSpace=wrap;rounded=0;" parent="1" vertex="1">
          <mxGeometry x="165" y="385" width="60" height="30" as="geometry" />
        </mxCell>
        <mxCell id="nbKRNy8KarKHfk9hv2lN-75" value="FALSE" style="text;html=1;strokeColor=none;fillColor=none;align=center;verticalAlign=middle;whiteSpace=wrap;rounded=0;" parent="1" vertex="1">
          <mxGeometry x="60" y="470" width="60" height="30" as="geometry" />
        </mxCell>
        <mxCell id="nbKRNy8KarKHfk9hv2lN-76" value="Chế độ tự động" style="whiteSpace=wrap;html=1;" parent="1" vertex="1">
          <mxGeometry x="655" y="395" width="90" height="40" as="geometry" />
        </mxCell>
        <mxCell id="nbKRNy8KarKHfk9hv2lN-78" value="Chế độ không tự động" style="whiteSpace=wrap;html=1;" parent="1" vertex="1">
          <mxGeometry x="655" y="505" width="125" height="40" as="geometry" />
        </mxCell>
        <mxCell id="nbKRNy8KarKHfk9hv2lN-91" value="" style="edgeStyle=orthogonalEdgeStyle;rounded=0;orthogonalLoop=1;jettySize=auto;html=1;" parent="1" source="nbKRNy8KarKHfk9hv2lN-85" target="nbKRNy8KarKHfk9hv2lN-90" edge="1">
          <mxGeometry relative="1" as="geometry" />
        </mxCell>
        <mxCell id="nbKRNy8KarKHfk9hv2lN-85" value="Lấy dữ liệu từ fire base" style="rhombus;whiteSpace=wrap;html=1;" parent="1" vertex="1">
          <mxGeometry x="320" y="475" width="120" height="110" as="geometry" />
        </mxCell>
        <mxCell id="nbKRNy8KarKHfk9hv2lN-95" value="" style="edgeStyle=orthogonalEdgeStyle;rounded=0;orthogonalLoop=1;jettySize=auto;html=1;" parent="1" source="nbKRNy8KarKHfk9hv2lN-90" edge="1">
          <mxGeometry relative="1" as="geometry">
            <mxPoint x="380" y="760" as="targetPoint" />
          </mxGeometry>
        </mxCell>
        <mxCell id="nbKRNy8KarKHfk9hv2lN-90" value="Hiển thị thông số" style="whiteSpace=wrap;html=1;" parent="1" vertex="1">
          <mxGeometry x="320" y="620" width="120" height="60" as="geometry" />
        </mxCell>
        <mxCell id="nbKRNy8KarKHfk9hv2lN-92" value="TRUE" style="text;html=1;strokeColor=none;fillColor=none;align=center;verticalAlign=middle;whiteSpace=wrap;rounded=0;" parent="1" vertex="1">
          <mxGeometry x="380" y="585" width="60" height="30" as="geometry" />
        </mxCell>
        <mxCell id="nbKRNy8KarKHfk9hv2lN-93" value="FALSE" style="text;html=1;strokeColor=none;fillColor=none;align=center;verticalAlign=middle;whiteSpace=wrap;rounded=0;" parent="1" vertex="1">
          <mxGeometry x="264" y="500" width="60" height="30" as="geometry" />
        </mxCell>
        <mxCell id="nbKRNy8KarKHfk9hv2lN-98" value="Thoát" style="ellipse;whiteSpace=wrap;html=1;" parent="1" vertex="1">
          <mxGeometry x="330" y="760" width="100" height="50" as="geometry" />
        </mxCell>
        <mxCell id="nbKRNy8KarKHfk9hv2lN-106" value="" style="endArrow=classic;html=1;rounded=0;exitX=0;exitY=0.5;exitDx=0;exitDy=0;" parent="1" source="nbKRNy8KarKHfk9hv2lN-85" edge="1">
          <mxGeometry width="50" height="50" relative="1" as="geometry">
            <mxPoint x="230" y="520" as="sourcePoint" />
            <mxPoint x="380" y="460" as="targetPoint" />
            <Array as="points">
              <mxPoint x="250" y="530" />
              <mxPoint x="250" y="460" />
              <mxPoint x="320" y="460" />
            </Array>
          </mxGeometry>
        </mxCell>
      </root>
    </mxGraphModel>
  </diagram>
</mxfile>
